<svg xmlns="http://www.w3.org/2000/svg" viewBox="0 0 21.78 10.23"><defs><style>.cls-1{fill:#c1c1c1;}</style></defs><title>icon-message-send-thin_1</title><g id="Layer_2" data-name="Layer 2"><g id="Layer_1-2" data-name="Layer 1"><polygon class="cls-1" points="14.47 7.12 7.29 0.71 7.82 0.12 14.47 6.06 21.13 0.12 21.66 0.71 14.47 7.12"/><polygon class="cls-1" points="21.78 10.21 7.57 10.21 7.57 9.42 20.98 9.42 20.98 0.81 7.57 0.81 7.57 0.02 21.78 0.02 21.78 10.21"/><rect class="cls-1" x="18.54" y="3.8" width="0.79" height="7.02" transform="translate(0.31 15.39) rotate(-44.59)"/><rect class="cls-1" x="6.51" y="6.94" width="6.95" height="0.79" transform="translate(-2.25 9.31) rotate(-45.48)"/><rect class="cls-1" x="5.66" width="2.34" height="0.79"/><rect class="cls-1" x="3.78" y="3.15" width="4.22" height="0.79"/><rect class="cls-1" x="1.89" y="6.29" width="6.11" height="0.79"/><rect class="cls-1" y="9.44" width="8" height="0.79"/></g></g></svg>