<svg xmlns="http://www.w3.org/2000/svg" viewBox="0 0 20.11 20.05"><defs><style>.cls-1{fill:#676767;}</style></defs><title>icon-dark-Asset 75</title><g id="Layer_2" data-name="Layer 2"><g id="Layer_1-2" data-name="Layer 1"><polygon class="cls-1" points="10.05 2.36 12.28 6.23 10.01 7.54 15.58 10.76 15.58 4.33 13.3 5.64 10.05 0 6.32 6.46 7.34 7.04 10.05 2.36"/><polygon class="cls-1" points="16.39 10.96 15.37 11.55 18.07 16.24 13.61 16.24 13.61 13.61 8.04 16.83 13.61 20.05 13.61 17.41 20.11 17.41 16.39 10.96"/><polygon class="cls-1" points="2.05 16.25 4.3 12.36 6.58 13.67 6.58 7.24 1 10.46 3.28 11.77 0 17.43 7.46 17.43 7.46 16.25 2.05 16.25"/></g></g></svg>